<?xml version="1.0" standalone="no"?>
<!DOCTYPE svg PUBLIC "-//W3C//DTD SVG 20010904//EN"
 "http://www.w3.org/TR/2001/REC-SVG-20010904/DTD/svg10.dtd">
<svg version="1.0" xmlns="http://www.w3.org/2000/svg"
 width="512.000000pt" height="512.000000pt" viewBox="0 0 512.000000 512.000000"
 preserveAspectRatio="xMidYMid meet">
<metadata>
Created by potrace 1.10, written by Peter Selinger 2001-2011
</metadata>
<g transform="translate(0.000000,512.000000) scale(0.050000,-0.050000)"
fill="#e2e619" stroke="none">
<path d="M8724 10176 c-29 -29 -32 -116 -5 -116 11 0 15 14 8 30 -18 48 10
107 34 69 15 -24 18 -23 19 6 0 41 -22 45 -56 11z"/>
<path d="M8903 10067 c12 -15 17 -50 12 -77 -5 -28 -3 -55 4 -59 8 -5 16 30
18 77 3 65 -3 85 -26 85 -23 0 -25 -6 -8 -26z"/>
<path d="M8447 9865 c9 -14 6 -25 -7 -25 -14 0 -15 -12 -3 -35 9 -19 14 -46 9
-60 -5 -14 6 -25 27 -25 21 0 28 7 17 15 -11 8 -23 38 -26 65 -5 40 -1 44 15
20 11 -16 21 -20 21 -7 0 12 -15 34 -34 50 -23 18 -29 19 -19 2z"/>
<path d="M8920 9650 c2 -33 3 -64 0 -70 -20 -56 -7 -120 26 -120 22 0 31 -9
22 -23 -9 -15 -5 -18 12 -7 21 13 20 21 -5 39 -21 15 -32 55 -32 119 0 52 -6
101 -13 109 -8 7 -12 -14 -10 -47z"/>
<path d="M8415 9651 c-31 -23 -32 -29 -5 -51 24 -20 32 -19 42 7 19 51 1 73
-37 44z"/>
<path d="M3700 9359 c-296 -37 -544 -428 -516 -815 5 -75 -1 -90 -46 -118
-100 -61 -118 -30 -118 196 l0 203 -148 -9 c-230 -15 -448 -176 -550 -405 -54
-123 -53 -129 18 -154 70 -24 69 -21 29 -100 -23 -44 -41 -56 -65 -46 -219 93
-535 29 -712 -143 -182 -176 -275 -564 -142 -588 55 -9 60 -17 60 -90 0 -78 2
-81 110 -124 138 -56 293 -215 370 -382 57 -124 91 -149 163 -123 72 27 72 78
-1 232 -118 249 -334 430 -590 497 -90 23 -132 141 -67 189 8 6 15 25 15 41 0
17 11 28 25 25 14 -3 34 16 44 43 10 26 29 54 41 62 16 10 16 21 -1 42 -18 21
-18 28 0 28 12 0 68 45 123 100 67 67 110 96 128 85 35 -19 253 -6 240 15 -5
9 15 22 45 29 30 8 59 21 65 30 39 61 325 -93 433 -234 138 -182 153 -262 138
-745 -27 -835 29 -1010 367 -1143 143 -57 570 -68 602 -17 76 119 5 166 -243
161 -445 -7 -544 120 -534 689 13 756 11 786 -50 946 -92 235 -238 387 -498
517 l-75 38 36 67 c20 36 44 66 55 66 10 -1 26 12 35 28 9 16 25 24 35 17 11
-6 19 1 19 16 0 39 104 134 158 145 90 17 122 33 122 61 0 16 14 29 30 29 17
0 30 -9 30 -20 0 -11 -11 -20 -25 -20 -18 -1 -17 -6 3 -18 18 -12 24 -38 16
-76 -6 -32 -3 -71 7 -87 15 -23 19 -21 19 11 1 28 11 20 33 -30 32 -70 32 -70
48 -20 l15 50 2 -55 c6 -170 222 -164 222 6 0 34 8 56 18 50 20 -12 44 35 54
109 4 28 9 61 11 75 2 14 17 25 33 25 24 0 27 21 18 112 -10 98 -8 108 16 75
31 -43 68 47 39 95 -9 15 -7 19 6 11 12 -7 40 19 63 58 27 46 51 66 67 57 14
-8 18 -7 10 2 -21 24 24 70 69 70 21 0 33 9 26 20 -7 11 -4 20 7 20 11 0 35 6
55 13 22 9 30 6 21 -8 -7 -11 1 -26 17 -32 17 -7 30 -5 30 3 0 12 46 14 155 6
82 -6 285 -245 285 -336 0 -16 10 -22 22 -15 15 9 18 0 9 -27 -9 -29 0 -50 33
-72 30 -21 35 -32 15 -33 -22 0 -21 -5 6 -21 19 -11 35 -37 35 -58 0 -46 32
-70 48 -35 6 14 9 -47 7 -135 -14 -465 -458 -780 -824 -584 -143 76 -268 -30
-156 -132 207 -187 737 -119 923 118 21 27 43 48 50 48 16 0 16 -4729 -1
-4847 -8 -59 -22 -93 -40 -93 -15 0 -27 -13 -27 -30 0 -16 -9 -30 -19 -30 -11
0 -15 -13 -9 -28 6 -15 0 -35 -14 -43 -14 -9 -19 -7 -12 5 7 10 1 19 -12 19
-14 0 -26 -36 -29 -90 -2 -50 -11 -95 -20 -102 -8 -6 -30 -51 -47 -101 -21
-58 -44 -89 -65 -87 -17 1 -30 -3 -28 -10 8 -25 -74 -103 -108 -103 -43 0 -66
-33 -32 -47 15 -6 11 -10 -10 -11 -19 -1 -35 -11 -35 -22 0 -11 -18 -20 -40
-20 -22 0 -40 -7 -40 -16 0 -8 -20 -17 -44 -19 -24 -2 -67 -20 -95 -41 -74
-54 -301 -61 -352 -10 -20 20 -39 32 -42 26 -3 -5 -22 4 -42 21 -20 18 -47 28
-59 24 -12 -4 -28 2 -35 13 -7 11 -25 15 -41 9 -17 -6 -35 3 -42 22 -7 18 -25
29 -40 23 -16 -6 -22 1 -16 17 6 15 -5 33 -26 39 -61 20 -137 98 -166 172 -15
39 -35 75 -43 81 -15 10 -32 75 -36 134 0 14 -12 23 -26 20 -15 -3 -23 13 -20
40 2 25 -4 45 -14 45 -10 0 -21 38 -25 85 -4 55 -15 83 -31 80 -42 -8 -29 100
26 209 77 155 212 268 461 386 120 57 257 123 305 146 492 246 470 1154 -34
1418 -114 59 -168 53 -192 -21 -19 -59 8 -102 88 -143 416 -211 404 -944 -18
-1114 -443 -179 -668 -352 -808 -621 -42 -80 -83 -141 -93 -135 -9 6 -22 3
-28 -7 -7 -10 -50 -19 -97 -19 -47 0 -105 -5 -130 -11 -30 -7 -45 -2 -45 17 0
16 -18 38 -41 50 -22 12 -35 31 -28 41 6 10 -5 19 -25 19 -35 0 -52 30 -100
174 -16 47 -16 67 1 73 13 6 3 11 -22 11 -47 2 -65 67 -25 92 11 7 15 -1 8
-17 -6 -16 -1 -35 11 -42 13 -8 21 6 21 36 0 28 14 65 32 82 18 18 28 50 22
71 -5 21 2 54 16 73 47 65 -18 206 -97 208 -42 2 -42 2 -3 17 39 16 39 16 -4
30 -25 8 -63 4 -87 -8 -31 -17 -49 -17 -69 0 -22 18 -89 19 -170 2 -5 -2 4
-12 20 -24 27 -19 27 -20 0 -13 -16 5 -30 21 -30 36 0 16 -51 42 -125 64 -74
21 -125 48 -125 64 0 15 -15 32 -33 40 -26 9 -28 18 -10 36 12 12 23 32 23 44
0 12 -9 8 -18 -7 -22 -34 -82 14 -82 66 0 18 -11 26 -28 20 -16 -6 -27 1 -27
16 4 60 -32 156 -58 156 -19 0 -27 30 -29 105 0 58 -6 94 -11 80 -6 -14 -19
-20 -30 -13 -11 7 -12 21 -2 35 10 13 11 50 4 83 -8 33 -15 48 -17 34 -1 -15
-11 -21 -22 -14 -29 18 -25 125 5 137 20 8 20 10 0 11 -30 2 -35 162 -5 162
11 0 21 -16 22 -35 1 -19 10 -6 21 31 11 41 11 78 -1 99 -12 23 -9 52 10 89
35 68 35 68 115 7 214 -163 553 -198 553 -58 0 53 -78 107 -155 107 -149 1
-333 123 -338 225 -1 30 4 50 13 45 9 -6 11 10 5 34 -17 65 -57 137 -69 125
-6 -6 -16 26 -24 70 -7 45 -23 81 -36 81 -12 0 -17 6 -10 13 7 7 3 31 -9 53
-12 22 -22 96 -23 162 0 75 -4 93 -8 47 -5 -41 -17 -75 -27 -75 -23 0 -23 215
1 270 20 46 26 27 20 -60 -2 -33 2 -54 9 -47 8 7 14 50 15 95 0 45 9 88 19 94
12 7 11 22 -2 37 -23 28 42 121 67 96 8 -8 5 11 -7 43 -17 45 -16 55 5 46 16
-6 27 7 29 33 2 23 13 46 24 49 12 4 21 15 21 25 0 30 120 142 139 130 10 -7
24 -3 31 9 7 11 2 20 -10 20 -12 0 -17 8 -11 18 6 10 42 11 82 2 59 -14 67
-12 48 12 -18 21 -16 30 10 40 18 7 29 25 23 39 -5 15 1 32 14 38 13 6 -15 8
-62 3 -557 -54 -780 -1062 -344 -1559 66 -75 76 -144 30 -204 -29 -38 -31 -38
-69 8 -148 174 -292 -283 -213 -674 121 -598 586 -996 942 -806 86 47 98 44
140 -37 28 -55 28 -58 -37 -96 -363 -214 -71 -837 382 -820 l155 6 17 95 c14
79 25 95 61 95 96 0 117 -40 93 -172 -71 -396 234 -810 679 -919 588 -145
1159 242 1192 808 14 242 188 271 188 32 0 -483 415 -869 932 -869 513 0 948
382 948 833 0 86 11 131 45 181 54 78 95 85 95 16 0 -249 506 -113 652 174
102 202 61 475 -83 540 -45 20 -51 33 -40 84 18 91 32 95 162 50 453 -159 916
371 918 1052 1 340 -111 570 -219 450 -96 -107 -97 124 -1 250 379 497 110
1490 -405 1490 -121 0 -176 145 -64 167 122 24 53 368 -110 549 -171 190 -484
279 -694 195 -83 -34 -86 -33 -120 10 -52 63 -44 98 24 122 75 26 75 41 -1
193 -113 226 -300 350 -529 353 l-140 1 1 -115 c0 -107 -3 -115 -47 -115 -84
0 -124 36 -124 110 0 187 -143 452 -315 583 -361 275 -888 -48 -921 -566 -7
-119 -17 -153 -56 -189 -62 -59 -67 -51 -77 124 -25 469 -330 768 -731 717z
m1575 -126 c14 -8 33 -11 42 -5 10 6 40 -14 68 -44 28 -30 75 -75 103 -101 29
-26 52 -63 52 -83 0 -20 14 -41 31 -48 17 -6 26 -20 20 -30 -6 -11 -2 -25 9
-32 11 -7 15 -21 9 -31 -6 -11 1 -19 17 -19 20 0 25 -16 19 -51 -11 -55 37
-107 100 -108 30 -1 35 -22 35 -148 0 -173 36 -229 125 -195 53 20 60 40 85
230 9 64 19 89 30 72 13 -21 23 -20 50 7 18 18 42 28 52 21 11 -6 32 -2 46 11
15 12 42 16 61 9 27 -11 29 -17 8 -30 -19 -12 -12 -18 23 -18 46 -1 160 -80
160 -112 0 -7 22 -34 49 -59 27 -24 42 -52 35 -60 -8 -8 2 -10 22 -2 28 9 43
-3 64 -52 l27 -65 -94 -48 c-445 -227 -526 -432 -518 -1302 5 -567 5 -570 -42
-645 -86 -139 -198 -185 -458 -187 -238 -3 -285 -19 -285 -95 2 -183 603 -137
808 62 183 176 193 240 172 1165 -9 403 58 588 268 738 97 69 273 131 292 102
6 -9 87 -21 180 -27 208 -14 198 -12 150 -33 -35 -15 -36 -18 -5 -21 19 -2 45
-5 57 -6 11 -2 34 -21 50 -43 17 -22 34 -38 39 -35 24 13 50 3 39 -15 -7 -11
2 -20 19 -20 17 0 31 -13 31 -30 0 -16 8 -30 18 -30 15 0 30 -30 72 -140 22
-60 39 -81 59 -73 15 6 31 -27 44 -88 l19 -96 -86 -22 c-357 -90 -782 -570
-628 -710 72 -64 125 -33 196 114 118 244 313 395 510 395 76 -1 97 -6 76 -20
-24 -15 -18 -24 34 -44 39 -14 67 -40 70 -65 4 -25 19 -39 38 -36 17 3 48 -13
68 -35 20 -22 29 -40 20 -40 -8 0 14 -26 50 -57 36 -32 60 -67 53 -79 -8 -12
-4 -27 8 -35 12 -7 17 -25 11 -40 -6 -16 0 -23 15 -18 15 6 26 -11 29 -46 2
-30 12 -58 22 -61 9 -3 12 -48 6 -100 -10 -90 -9 -93 28 -64 36 28 37 28 5
-10 -23 -27 -37 -92 -44 -200 -14 -207 -18 -230 -38 -230 -10 0 -12 -9 -6 -19
7 -11 -2 -53 -20 -95 -37 -90 -52 -211 -27 -227 63 -40 -211 -215 -365 -233
-151 -18 -204 -98 -117 -176 76 -68 350 4 528 140 l69 53 24 -45 c14 -26 22
-112 20 -206 -9 -392 -12 -448 -24 -440 -14 8 -36 -62 -37 -116 0 -18 -8 -54
-18 -80 -9 -25 -20 -55 -23 -66 -3 -11 -18 -32 -33 -47 -14 -14 -21 -34 -15
-45 6 -10 1 -18 -11 -18 -12 0 -17 -8 -11 -18 6 -11 -11 -37 -39 -58 -27 -22
-50 -51 -50 -64 0 -13 -13 -19 -29 -13 -20 8 -25 1 -17 -21 10 -25 5 -30 -21
-20 -22 9 -33 2 -33 -20 0 -18 -6 -27 -13 -20 -7 8 -23 6 -35 -3 -12 -10 -53
-23 -90 -30 -38 -7 -81 -24 -96 -37 -41 -33 -126 -38 -200 -11 -69 24 -115 6
-65 -26 22 -14 17 -18 -22 -19 -87 0 -146 -149 -77 -191 13 -8 17 -39 11 -71
-7 -32 -3 -58 8 -58 10 0 18 -7 17 -15 -11 -69 5 -128 32 -118 18 7 30 0 30
-18 0 -16 -16 -30 -35 -30 -30 -2 -29 -4 5 -19 39 -17 39 -17 -3 -19 -34 -1
-41 -10 -33 -42 21 -79 -77 -229 -163 -251 -40 -10 -48 -18 -28 -30 20 -13 17
-18 -13 -18 -22 -1 -57 -14 -79 -31 -96 -72 -212 -26 -251 101 -85 274 -307
480 -702 651 -374 161 -460 263 -474 560 -14 285 82 486 295 617 175 107 103
275 -78 182 -394 -200 -542 -789 -299 -1190 89 -147 179 -215 421 -320 361
-157 531 -289 619 -480 48 -105 50 -233 3 -262 -19 -12 -47 -64 -62 -115 -15
-51 -36 -93 -47 -93 -10 0 -13 -17 -7 -38 7 -21 2 -45 -11 -53 -16 -10 -19 -7
-8 11 11 18 8 21 -8 11 -18 -11 -18 -22 2 -47 19 -24 20 -28 1 -17 -16 10 -25
3 -25 -19 0 -44 -134 -208 -171 -208 -15 0 -37 -18 -49 -41 -12 -22 -30 -35
-40 -29 -10 6 -25 -2 -34 -17 -22 -37 -103 -78 -126 -63 -11 7 -20 2 -20 -10
0 -12 -9 -17 -20 -10 -11 7 -20 4 -20 -7 0 -53 -358 -80 -375 -28 -3 9 -39 13
-80 8 -69 -8 -72 -6 -46 26 25 30 25 34 0 30 -59 -8 -94 2 -139 41 -25 21 -55
33 -66 26 -13 -8 -16 0 -8 21 9 24 0 39 -31 52 -61 23 -152 121 -113 122 20 0
18 6 -7 21 -58 34 -121 177 -133 305 -1 10 -15 12 -32 6 -21 -8 -30 1 -30 33
-1 67 -23 135 -40 124 -41 -25 -46 207 -53 2310 -4 1238 -10 2324 -12 2415 -6
185 6 198 96 104 189 -197 531 -254 797 -132 124 56 148 91 115 164 -29 63
-103 64 -201 4 -170 -106 -465 -37 -632 148 -164 182 -260 554 -150 583 31 8
41 22 33 43 -6 17 -2 31 10 31 13 0 16 20 9 49 -9 36 0 61 33 93 25 24 32 37
17 28 -18 -11 -23 -9 -14 6 7 12 25 18 40 12 17 -7 30 9 37 41 5 28 2 51 -8
51 -9 0 -17 10 -17 21 0 12 9 16 20 9 11 -7 20 0 20 15 0 14 28 43 61 63 38
22 58 47 51 64 -7 18 3 28 29 28 21 0 39 9 39 20 0 11 20 20 45 20 25 0 57 8
71 17 32 20 145 18 179 -4z m2860 -4165 c5 -69 2 -108 -10 -101 -11 6 -20 62
-20 124 -1 141 17 127 30 -23z"/>
<path d="M6786 5333 c-231 -171 -364 -392 -382 -638 -27 -386 182 -817 306
-628 31 47 29 55 -27 168 -189 373 -68 797 277 975 75 39 98 117 49 171 -52
57 -91 49 -223 -48z"/>
<path d="M1991 5381 c-55 -61 -26 -127 89 -201 337 -216 421 -560 238 -976
-84 -192 82 -269 175 -81 228 456 92 972 -325 1236 -113 72 -130 74 -177 22z"/>
</g>
</svg>
